# xmcd CD database file
#
# Track frame offsets:
#	150
#	24422
#	48182
#	66087
#	82252
#	102552
#	121205
#	136525
#	157402
#	174025
#	189827
#
# Disc length: 2817 seconds
#
# Revision: 0
# Processed by: cddbd v1.5.1PL0 Copyright (c) Steve Scherf et al.
# Submitted via: CDex 1.51
#
DISCID=880aff0b
DTITLE=HIKARI - Good-bye Sputnik
DYEAR=2000
DGENRE=
TTITLE0=宇宙のうた
TTITLE1=JESUS
TTITLE2=METRO
TTITLE3=PLAY BACK
TTITLE4=HAD ENOUGH
TTITLE5=LARIAT
TTITLE6=ROLLING STONE
TTITLE7=SASA
TTITLE8=HURRY RACE
TTITLE9=JETCOASTER
TTITLE10=ライカ
EXTD=YEAR: 2000
EXTT0=
EXTT1=
EXTT2=
EXTT3=
EXTT4=
EXTT5=
EXTT6=
EXTT7=
EXTT8=
EXTT9=
EXTT10=
PLAYORDER=
